<?xml version="1.0" encoding="UTF-8" standalone="no"?>
<svg xmlns="http://www.w3.org/2000/svg" class="icon" height="200" p-id="125710" t="1710671122579" version="1.1" viewBox="0 0 1024 1024" width="200">
    <path class="" d="M0 42.666667m59.733333 0l93.866667 0q59.733333 0 59.733333 59.733333l0 819.2q0 59.733333-59.733333 59.733333l-93.866667 0q-59.733333 0-59.733333-59.733333l0-819.2q0-59.733333 59.733333-59.733333Z" data-spm-anchor-id="a313x.search_index.0.i70.64ed3a81pMcPzF" fill="#8FBFEF" p-id="125711"/>
    <path class="selected" d="M298.666667 341.333333m59.733333 0l605.866667 0q59.733333 0 59.733333 59.733334l0 520.533333q0 59.733333-59.733333 59.733333l-605.866667 0q-59.733333 0-59.733333-59.733333l0-520.533333q0-59.733333 59.733333-59.733334Z" data-spm-anchor-id="a313x.search_index.0.i73.64ed3a81pMcPzF" fill="#FFFFFF" p-id="125712"/>
    <path class="selected" d="M298.666667 42.666667m59.733333 0l605.866667 0q59.733333 0 59.733333 59.733333l0 93.866667q0 59.733333-59.733333 59.733333l-605.866667 0q-59.733333 0-59.733333-59.733333l0-93.866667q0-59.733333 59.733333-59.733333Z" data-spm-anchor-id="a313x.search_index.0.i71.64ed3a81pMcPzF" fill="#2285E1" p-id="125713"/>
</svg>
