<svg height="512" viewBox="0 0 128 128" width="512" xmlns="http://www.w3.org/2000/svg"><path d="m64 17.25a46.75 46.75 0 1 0 46.75 46.75 46.8 46.8 0 0 0 -46.75-46.75zm0 90a43.25 43.25 0 1 1 43.25-43.25 43.3 43.3 0 0 1 -43.25 43.25z"/><path d="m80.859 86.359h-8.519a1.752 1.752 0 0 1 -1.433-.745l-9.197-13.114h-5.319v12.109a1.751 1.751 0 0 1 -1.75 1.75h-7.5a1.75 1.75 0 0 1 -1.75-1.75v-41.218a1.75 1.75 0 0 1 1.75-1.75h17.939c9.949 0 17.17 6.489 17.17 15.429a14.834 14.834 0 0 1 -8.987 13.73l9.027 12.8a1.75 1.75 0 0 1 -1.431 2.758zm-7.609-3.5h4.234l-8.375-11.88a1.751 1.751 0 0 1 .908-2.679c5.386-1.687 8.733-5.99 8.733-11.23 0-6.912-5.75-11.929-13.67-11.929h-16.189v37.718h4v-12.109a1.75 1.75 0 0 1 1.75-1.75h7.979a1.752 1.752 0 0 1 1.433.745zm-9.01-17.259h-9.6a1.75 1.75 0 0 1 -1.75-1.75v-13.559a1.749 1.749 0 0 1 1.75-1.75h9.6c6.215 0 10.39 3.427 10.39 8.529s-4.175 8.53-10.39 8.53zm-7.849-3.5h7.849c3.331 0 6.89-1.321 6.89-5.03s-3.559-5.029-6.89-5.029h-7.849z"/></svg>