<?xml version="1.0" encoding="utf-8"?>
<!-- Generator: Adobe Illustrator 16.0.0, SVG Export Plug-In . SVG Version: 6.00 Build 0)  -->
<!DOCTYPE svg PUBLIC "-//W3C//DTD SVG 1.0//EN" "http://www.w3.org/TR/2001/REC-SVG-20010904/DTD/svg10.dtd">
<svg version="1.0" id="Layer_1" xmlns="http://www.w3.org/2000/svg" xmlns:xlink="http://www.w3.org/1999/xlink" x="0px" y="0px"
	 width="100px" height="100px" viewBox="0 0 100 100" enable-background="new 0 0 100 100" xml:space="preserve">
<path d="M87.07,72.93l-20.02-20.025C68.923,48.991,70,44.625,70,40c0-16.569-13.431-30-30-30S10,23.431,10,40
	c0,16.568,13.431,30,30,30c4.629,0,8.991-1.08,12.907-2.949L72.93,87.07c3.903,3.906,10.237,3.906,14.141,0
	C90.977,83.164,90.977,76.83,87.07,72.93z M16.667,40c0-12.891,10.445-23.333,23.333-23.333S63.333,27.109,63.333,40
	c0,12.885-10.445,23.334-23.333,23.334S16.667,52.885,16.667,40z M82.356,82.357c-1.299,1.301-3.414,1.301-4.713,0l-18.93-18.934
	c1.738-1.393,3.32-2.975,4.714-4.713l18.929,18.932C83.659,78.939,83.659,81.055,82.356,82.357z"/>
<path d="M45.469,33.119c0.589-3.552-1.872-6.452-5.469-6.452l0,0c-3.601,0-6.062,2.9-5.469,6.452l0.892,5.374
	c0.358,2.136,2.416,3.877,4.577,3.877l0,0c2.161,0,4.219-1.741,4.57-3.877L45.469,33.119z"/>
<path d="M51.224,44.847l-3.685-1.228c-1.804,2.259-4.577,3.75-7.539,3.75c-2.956,0-5.729-1.487-7.539-3.75l-3.685,1.228
	c-1.159,0.391-2.109,1.706-2.109,2.93v5.557h26.666v-5.557C53.333,46.553,52.386,45.238,51.224,44.847z"/>
</svg>
