<?xml version="1.0" encoding="UTF-8"?>
<svg width="24px" height="24px" viewBox="0 0 24 24" version="1.1" xmlns="http://www.w3.org/2000/svg" xmlns:xlink="http://www.w3.org/1999/xlink">
    <title>icon/少儿/select</title>
    <g id="icon/少儿/select" stroke="none" stroke-width="1" fill="none" fill-rule="evenodd">
        <g id="00"></g>
        <path d="M20.400313,9.17014308 C21.5651499,9.58248558 22.4,10.6937479 22.4,12 C22.4,13.3635131 21.4903524,14.5145666 20.2448102,14.8794077 C18.9975125,18.221027 15.7765757,20.6 12,20.6 C8.22342428,20.6 5.00248747,18.221027 3.75402274,14.8799143 C2.50964758,14.5145666 1.6,13.3635131 1.6,12 C1.6,10.6937479 2.4348501,9.58248558 3.60008893,9.17067428 C4.6442305,5.83033868 7.6255848,3.34627704 11.2285306,3.03335009 C10.0526389,3.40332982 9.2,4.50209266 9.2,5.8 C9.2,7.40162577 10.4983742,8.7 12.1,8.7 C12.5418278,8.7 12.9,8.3418278 12.9,7.9 C12.9,7.4581722 12.5418278,7.1 12.1,7.1 L12.1,7.1 L11.9670826,7.09328825 C11.3115497,7.02671525 10.8,6.47309704 10.8,5.8 C10.8,5.08202983 11.3820298,4.5 12.1,4.5 C12.5418278,4.5 12.9,4.1418278 12.9,3.7 C12.9,3.40880485 12.7444199,3.15394738 12.5118487,3.01401662 C16.2304122,3.22771089 19.330765,5.75026724 20.400313,9.17014308 Z M13.3777778,14.4444444 L10.7777778,14.4444444 C10.7777778,15.2668466 11.3598076,15.9335354 12.0777778,15.9335354 C12.795748,15.9335354 13.3777778,15.2668466 13.3777778,14.4444444 Z M9.02222222,10.7777778 C8.30425205,10.7777778 7.72222222,11.3598076 7.72222222,12.0777778 C7.72222222,12.795748 8.30425205,13.3777778 9.02222222,13.3777778 C9.7401924,13.3777778 10.3222222,12.795748 10.3222222,12.0777778 C10.3222222,11.3598076 9.7401924,10.7777778 9.02222222,10.7777778 Z M15.1333333,10.7777778 C14.4153632,10.7777778 13.8333333,11.3598076 13.8333333,12.0777778 C13.8333333,12.795748 14.4153632,13.3777778 15.1333333,13.3777778 C15.8513035,13.3777778 16.4333333,12.795748 16.4333333,12.0777778 C16.4333333,11.3598076 15.8513035,10.7777778 15.1333333,10.7777778 Z" id="形状结合" fill="#00D1D1"></path>
    </g>
</svg>