<svg viewBox="0 0 52 52" fill="none" xmlns="http://www.w3.org/2000/svg">
<path fill-rule="evenodd" clip-rule="evenodd" d="M26.8125 6C27.0886 6 27.3125 6.22386 27.3125 6.5V12.1873C27.7303 11.8735 28.2497 11.6875 28.8125 11.6875H32.5C32.7761 11.6875 33 11.9114 33 12.1875C33 12.4636 32.7761 12.6875 32.5 12.6875H28.8125C27.9841 12.6875 27.3125 13.3591 27.3125 14.1875V16.25V17.5385C27.3125 18.4068 26.9676 19.2396 26.3536 19.8536C25.9271 20.28 25.6875 20.8584 25.6875 21.4615V21.9375V23.5623C26.1053 23.2485 26.6247 23.0625 27.1875 23.0625H30.875C31.1511 23.0625 31.375 23.2864 31.375 23.5625C31.375 23.8386 31.1511 24.0625 30.875 24.0625H27.1875C26.3591 24.0625 25.6875 24.7341 25.6875 25.5625V27.625V30.0625C25.6875 30.3386 25.4636 30.5625 25.1875 30.5625C24.9114 30.5625 24.6875 30.3386 24.6875 30.0625C24.6875 28.5437 23.4563 27.3125 21.9375 27.3125V26.3125C23.024 26.3125 24.0026 26.7746 24.6875 27.513V25.5625V21.9375V21.4615V18.9375C24.6875 17.2806 23.3444 15.9375 21.6875 15.9375H18.6875C18.4114 15.9375 18.1875 15.7136 18.1875 15.4375C18.1875 15.1614 18.4114 14.9375 18.6875 14.9375H21.6875C23.8966 14.9375 25.6875 16.7284 25.6875 18.9375V19.1043C26.0883 18.6823 26.3125 18.1219 26.3125 17.5385V16.25V14.1875V6.5C26.3125 6.22386 26.5364 6 26.8125 6Z" fill="url(#paint0_radial_1055_271793)"/>
<path fill-rule="evenodd" clip-rule="evenodd" d="M26.8125 6C27.0886 6 27.3125 6.22386 27.3125 6.5V12.1873C27.7303 11.8735 28.2497 11.6875 28.8125 11.6875H32.5C32.7761 11.6875 33 11.9114 33 12.1875C33 12.4636 32.7761 12.6875 32.5 12.6875H28.8125C27.9841 12.6875 27.3125 13.3591 27.3125 14.1875V16.25V17.5385C27.3125 18.4068 26.9676 19.2396 26.3536 19.8536C25.9271 20.28 25.6875 20.8584 25.6875 21.4615V21.9375V23.5623C26.1053 23.2485 26.6247 23.0625 27.1875 23.0625H30.875C31.1511 23.0625 31.375 23.2864 31.375 23.5625C31.375 23.8386 31.1511 24.0625 30.875 24.0625H27.1875C26.3591 24.0625 25.6875 24.7341 25.6875 25.5625V27.625V30.0625C25.6875 30.3386 25.4636 30.5625 25.1875 30.5625C24.9114 30.5625 24.6875 30.3386 24.6875 30.0625C24.6875 28.5437 23.4563 27.3125 21.9375 27.3125V26.3125C23.024 26.3125 24.0026 26.7746 24.6875 27.513V25.5625V21.9375V21.4615V18.9375C24.6875 17.2806 23.3444 15.9375 21.6875 15.9375H18.6875C18.4114 15.9375 18.1875 15.7136 18.1875 15.4375C18.1875 15.1614 18.4114 14.9375 18.6875 14.9375H21.6875C23.8966 14.9375 25.6875 16.7284 25.6875 18.9375V19.1043C26.0883 18.6823 26.3125 18.1219 26.3125 17.5385V16.25V14.1875V6.5C26.3125 6.22386 26.5364 6 26.8125 6Z" fill="url(#paint1_radial_1055_271793)"/>
<path fill-rule="evenodd" clip-rule="evenodd" d="M26.8125 6C27.0886 6 27.3125 6.22386 27.3125 6.5V12.1873C27.7303 11.8735 28.2497 11.6875 28.8125 11.6875H32.5C32.7761 11.6875 33 11.9114 33 12.1875C33 12.4636 32.7761 12.6875 32.5 12.6875H28.8125C27.9841 12.6875 27.3125 13.3591 27.3125 14.1875V16.25V17.5385C27.3125 18.4068 26.9676 19.2396 26.3536 19.8536C25.9271 20.28 25.6875 20.8584 25.6875 21.4615V21.9375V23.5623C26.1053 23.2485 26.6247 23.0625 27.1875 23.0625H30.875C31.1511 23.0625 31.375 23.2864 31.375 23.5625C31.375 23.8386 31.1511 24.0625 30.875 24.0625H27.1875C26.3591 24.0625 25.6875 24.7341 25.6875 25.5625V27.625V30.0625C25.6875 30.3386 25.4636 30.5625 25.1875 30.5625C24.9114 30.5625 24.6875 30.3386 24.6875 30.0625C24.6875 28.5437 23.4563 27.3125 21.9375 27.3125V26.3125C23.024 26.3125 24.0026 26.7746 24.6875 27.513V25.5625V21.9375V21.4615V18.9375C24.6875 17.2806 23.3444 15.9375 21.6875 15.9375H18.6875C18.4114 15.9375 18.1875 15.7136 18.1875 15.4375C18.1875 15.1614 18.4114 14.9375 18.6875 14.9375H21.6875C23.8966 14.9375 25.6875 16.7284 25.6875 18.9375V19.1043C26.0883 18.6823 26.3125 18.1219 26.3125 17.5385V16.25V14.1875V6.5C26.3125 6.22386 26.5364 6 26.8125 6Z" fill="url(#paint2_radial_1055_271793)"/>
<path fill-rule="evenodd" clip-rule="evenodd" d="M26.8125 6C27.0886 6 27.3125 6.22386 27.3125 6.5V12.1873C27.7303 11.8735 28.2497 11.6875 28.8125 11.6875H32.5C32.7761 11.6875 33 11.9114 33 12.1875C33 12.4636 32.7761 12.6875 32.5 12.6875H28.8125C27.9841 12.6875 27.3125 13.3591 27.3125 14.1875V16.25V17.5385C27.3125 18.4068 26.9676 19.2396 26.3536 19.8536C25.9271 20.28 25.6875 20.8584 25.6875 21.4615V21.9375V23.5623C26.1053 23.2485 26.6247 23.0625 27.1875 23.0625H30.875C31.1511 23.0625 31.375 23.2864 31.375 23.5625C31.375 23.8386 31.1511 24.0625 30.875 24.0625H27.1875C26.3591 24.0625 25.6875 24.7341 25.6875 25.5625V27.625V30.0625C25.6875 30.3386 25.4636 30.5625 25.1875 30.5625C24.9114 30.5625 24.6875 30.3386 24.6875 30.0625C24.6875 28.5437 23.4563 27.3125 21.9375 27.3125V26.3125C23.024 26.3125 24.0026 26.7746 24.6875 27.513V25.5625V21.9375V21.4615V18.9375C24.6875 17.2806 23.3444 15.9375 21.6875 15.9375H18.6875C18.4114 15.9375 18.1875 15.7136 18.1875 15.4375C18.1875 15.1614 18.4114 14.9375 18.6875 14.9375H21.6875C23.8966 14.9375 25.6875 16.7284 25.6875 18.9375V19.1043C26.0883 18.6823 26.3125 18.1219 26.3125 17.5385V16.25V14.1875V6.5C26.3125 6.22386 26.5364 6 26.8125 6Z" fill="url(#paint3_radial_1055_271793)"/>
<path fill-rule="evenodd" clip-rule="evenodd" d="M26.8125 6C27.0886 6 27.3125 6.22386 27.3125 6.5V12.1873C27.7303 11.8735 28.2497 11.6875 28.8125 11.6875H32.5C32.7761 11.6875 33 11.9114 33 12.1875C33 12.4636 32.7761 12.6875 32.5 12.6875H28.8125C27.9841 12.6875 27.3125 13.3591 27.3125 14.1875V16.25V17.5385C27.3125 18.4068 26.9676 19.2396 26.3536 19.8536C25.9271 20.28 25.6875 20.8584 25.6875 21.4615V21.9375V23.5623C26.1053 23.2485 26.6247 23.0625 27.1875 23.0625H30.875C31.1511 23.0625 31.375 23.2864 31.375 23.5625C31.375 23.8386 31.1511 24.0625 30.875 24.0625H27.1875C26.3591 24.0625 25.6875 24.7341 25.6875 25.5625V27.625V30.0625C25.6875 30.3386 25.4636 30.5625 25.1875 30.5625C24.9114 30.5625 24.6875 30.3386 24.6875 30.0625C24.6875 28.5437 23.4563 27.3125 21.9375 27.3125V26.3125C23.024 26.3125 24.0026 26.7746 24.6875 27.513V25.5625V21.9375V21.4615V18.9375C24.6875 17.2806 23.3444 15.9375 21.6875 15.9375H18.6875C18.4114 15.9375 18.1875 15.7136 18.1875 15.4375C18.1875 15.1614 18.4114 14.9375 18.6875 14.9375H21.6875C23.8966 14.9375 25.6875 16.7284 25.6875 18.9375V19.1043C26.0883 18.6823 26.3125 18.1219 26.3125 17.5385V16.25V14.1875V6.5C26.3125 6.22386 26.5364 6 26.8125 6Z" fill="url(#paint4_radial_1055_271793)"/>
<path fill-rule="evenodd" clip-rule="evenodd" d="M26.8125 6C27.0886 6 27.3125 6.22386 27.3125 6.5V12.1873C27.7303 11.8735 28.2497 11.6875 28.8125 11.6875H32.5C32.7761 11.6875 33 11.9114 33 12.1875C33 12.4636 32.7761 12.6875 32.5 12.6875H28.8125C27.9841 12.6875 27.3125 13.3591 27.3125 14.1875V16.25V17.5385C27.3125 18.4068 26.9676 19.2396 26.3536 19.8536C25.9271 20.28 25.6875 20.8584 25.6875 21.4615V21.9375V23.5623C26.1053 23.2485 26.6247 23.0625 27.1875 23.0625H30.875C31.1511 23.0625 31.375 23.2864 31.375 23.5625C31.375 23.8386 31.1511 24.0625 30.875 24.0625H27.1875C26.3591 24.0625 25.6875 24.7341 25.6875 25.5625V27.625V30.0625C25.6875 30.3386 25.4636 30.5625 25.1875 30.5625C24.9114 30.5625 24.6875 30.3386 24.6875 30.0625C24.6875 28.5437 23.4563 27.3125 21.9375 27.3125V26.3125C23.024 26.3125 24.0026 26.7746 24.6875 27.513V25.5625V21.9375V21.4615V18.9375C24.6875 17.2806 23.3444 15.9375 21.6875 15.9375H18.6875C18.4114 15.9375 18.1875 15.7136 18.1875 15.4375C18.1875 15.1614 18.4114 14.9375 18.6875 14.9375H21.6875C23.8966 14.9375 25.6875 16.7284 25.6875 18.9375V19.1043C26.0883 18.6823 26.3125 18.1219 26.3125 17.5385V16.25V14.1875V6.5C26.3125 6.22386 26.5364 6 26.8125 6Z" fill="url(#paint5_radial_1055_271793)"/>
<path fill-rule="evenodd" clip-rule="evenodd" d="M26.8125 6C27.0886 6 27.3125 6.22386 27.3125 6.5V12.1873C27.7303 11.8735 28.2497 11.6875 28.8125 11.6875H32.5C32.7761 11.6875 33 11.9114 33 12.1875C33 12.4636 32.7761 12.6875 32.5 12.6875H28.8125C27.9841 12.6875 27.3125 13.3591 27.3125 14.1875V16.25V17.5385C27.3125 18.4068 26.9676 19.2396 26.3536 19.8536C25.9271 20.28 25.6875 20.8584 25.6875 21.4615V21.9375V23.5623C26.1053 23.2485 26.6247 23.0625 27.1875 23.0625H30.875C31.1511 23.0625 31.375 23.2864 31.375 23.5625C31.375 23.8386 31.1511 24.0625 30.875 24.0625H27.1875C26.3591 24.0625 25.6875 24.7341 25.6875 25.5625V27.625V30.0625C25.6875 30.3386 25.4636 30.5625 25.1875 30.5625C24.9114 30.5625 24.6875 30.3386 24.6875 30.0625C24.6875 28.5437 23.4563 27.3125 21.9375 27.3125V26.3125C23.024 26.3125 24.0026 26.7746 24.6875 27.513V25.5625V21.9375V21.4615V18.9375C24.6875 17.2806 23.3444 15.9375 21.6875 15.9375H18.6875C18.4114 15.9375 18.1875 15.7136 18.1875 15.4375C18.1875 15.1614 18.4114 14.9375 18.6875 14.9375H21.6875C23.8966 14.9375 25.6875 16.7284 25.6875 18.9375V19.1043C26.0883 18.6823 26.3125 18.1219 26.3125 17.5385V16.25V14.1875V6.5C26.3125 6.22386 26.5364 6 26.8125 6Z" fill="url(#paint6_radial_1055_271793)"/>
<path fill-rule="evenodd" clip-rule="evenodd" d="M26.8125 6C27.0886 6 27.3125 6.22386 27.3125 6.5V12.1873C27.7303 11.8735 28.2497 11.6875 28.8125 11.6875H32.5C32.7761 11.6875 33 11.9114 33 12.1875C33 12.4636 32.7761 12.6875 32.5 12.6875H28.8125C27.9841 12.6875 27.3125 13.3591 27.3125 14.1875V16.25V17.5385C27.3125 18.4068 26.9676 19.2396 26.3536 19.8536C25.9271 20.28 25.6875 20.8584 25.6875 21.4615V21.9375V23.5623C26.1053 23.2485 26.6247 23.0625 27.1875 23.0625H30.875C31.1511 23.0625 31.375 23.2864 31.375 23.5625C31.375 23.8386 31.1511 24.0625 30.875 24.0625H27.1875C26.3591 24.0625 25.6875 24.7341 25.6875 25.5625V27.625V30.0625C25.6875 30.3386 25.4636 30.5625 25.1875 30.5625C24.9114 30.5625 24.6875 30.3386 24.6875 30.0625C24.6875 28.5437 23.4563 27.3125 21.9375 27.3125V26.3125C23.024 26.3125 24.0026 26.7746 24.6875 27.513V25.5625V21.9375V21.4615V18.9375C24.6875 17.2806 23.3444 15.9375 21.6875 15.9375H18.6875C18.4114 15.9375 18.1875 15.7136 18.1875 15.4375C18.1875 15.1614 18.4114 14.9375 18.6875 14.9375H21.6875C23.8966 14.9375 25.6875 16.7284 25.6875 18.9375V19.1043C26.0883 18.6823 26.3125 18.1219 26.3125 17.5385V16.25V14.1875V6.5C26.3125 6.22386 26.5364 6 26.8125 6Z" fill="url(#paint7_radial_1055_271793)"/>
<path d="M35.3237 32.4941C32.7399 30.4629 29.5062 29.2441 26.0124 29.2441C22.5187 29.2441 19.2849 30.4629 16.7012 32.4941L26.0124 35.889L35.3237 32.4941Z" fill="url(#paint8_radial_1055_271793)"/>
<path d="M14.6309 35.75H37.3809V37.375C37.3809 43.6572 32.2881 48.75 26.0059 48.75C19.7236 48.75 14.6309 43.6572 14.6309 37.375V35.75Z" fill="#D9D9D9"/>
<path d="M14.6309 35.75H37.3809V37.375C37.3809 43.6572 32.2881 48.75 26.0059 48.75C19.7236 48.75 14.6309 43.6572 14.6309 37.375V35.75Z" fill="url(#paint9_radial_1055_271793)"/>
<path d="M14.6309 35.75H37.3809V37.375C37.3809 43.6572 32.2881 48.75 26.0059 48.75C19.7236 48.75 14.6309 43.6572 14.6309 37.375V35.75Z" fill="url(#paint10_linear_1055_271793)"/>
<path d="M14.6309 35.75H37.3809V37.375C37.3809 43.6572 32.2881 48.75 26.0059 48.75C19.7236 48.75 14.6309 43.6572 14.6309 37.375V35.75Z" fill="url(#paint11_radial_1055_271793)"/>
<path d="M14.6309 35.75H37.3809V37.375C37.3809 43.6572 32.2881 48.75 26.0059 48.75C19.7236 48.75 14.6309 43.6572 14.6309 37.375V35.75Z" fill="url(#paint12_linear_1055_271793)"/>
<rect x="13" y="32.5" width="26" height="3.25" rx="1.625" fill="#D9D9D9"/>
<rect x="13" y="32.5" width="26" height="3.25" rx="1.625" fill="url(#paint13_radial_1055_271793)"/>
<rect x="13" y="32.5" width="26" height="3.25" rx="1.625" fill="url(#paint14_linear_1055_271793)"/>
<rect x="13" y="32.5" width="26" height="3.25" rx="1.625" fill="url(#paint15_linear_1055_271793)"/>
<rect x="13" y="32.5" width="26" height="3.25" rx="1.625" fill="url(#paint16_linear_1055_271793)"/>
<path d="M19.5 24.575C19.5 24.4645 19.5895 24.375 19.7 24.375H21.75C22.3023 24.375 22.75 24.8227 22.75 25.375V27.425C22.75 27.5355 22.6605 27.625 22.55 27.625H20.5C19.9477 27.625 19.5 27.1773 19.5 26.625V24.575Z" fill="url(#paint17_radial_1055_271793)"/>
<path d="M16.25 13.2C16.25 13.0895 16.3395 13 16.45 13H18.5C19.0523 13 19.5 13.4477 19.5 14V16.05C19.5 16.1605 19.4105 16.25 19.3 16.25H17.25C16.6977 16.25 16.25 15.8023 16.25 15.25V13.2Z" fill="url(#paint18_radial_1055_271793)"/>
<path d="M24.375 5.075C24.375 4.96454 24.4645 4.875 24.575 4.875H26.625C27.1773 4.875 27.625 5.32272 27.625 5.875V7.925C27.625 8.03546 27.5355 8.125 27.425 8.125H25.375C24.8227 8.125 24.375 7.67728 24.375 7.125V5.075Z" fill="url(#paint19_radial_1055_271793)"/>
<path d="M34.125 9.95C34.125 9.83954 34.0355 9.75 33.925 9.75H31.875C31.3227 9.75 30.875 10.1977 30.875 10.75V12.8C30.875 12.9105 30.9645 13 31.075 13H33.125C33.6773 13 34.125 12.5523 34.125 12V9.95Z" fill="url(#paint20_radial_1055_271793)"/>
<path d="M32.5 21.325C32.5 21.2145 32.4105 21.125 32.3 21.125H30.25C29.6977 21.125 29.25 21.5727 29.25 22.125V24.175C29.25 24.2855 29.3395 24.375 29.45 24.375H31.5C32.0523 24.375 32.5 23.9273 32.5 23.375V21.325Z" fill="url(#paint21_radial_1055_271793)"/>
<path d="M14.625 20C14.625 19.7239 14.8489 19.5 15.125 19.5H20.25C21.6307 19.5 22.75 20.6193 22.75 22V27.125C22.75 27.4011 22.5261 27.625 22.25 27.625H17.125C15.7443 27.625 14.625 26.5057 14.625 25.125V20Z" fill="url(#paint22_radial_1055_271793)"/>
<path d="M11.375 8.625C11.375 8.34886 11.5989 8.125 11.875 8.125H17C18.3807 8.125 19.5 9.24429 19.5 10.625V15.75C19.5 16.0261 19.2761 16.25 19 16.25H13.875C12.4943 16.25 11.375 15.1307 11.375 13.75V8.625Z" fill="url(#paint23_radial_1055_271793)"/>
<path d="M37.375 16.75C37.375 16.4739 37.1511 16.25 36.875 16.25H31.75C30.3693 16.25 29.25 17.3693 29.25 18.75V23.875C29.25 24.1511 29.4739 24.375 29.75 24.375H34.875C36.2557 24.375 37.375 23.2557 37.375 21.875V16.75Z" fill="url(#paint24_radial_1055_271793)"/>
<defs>
<radialGradient id="paint0_radial_1055_271793" cx="0" cy="0" r="1" gradientUnits="userSpaceOnUse" gradientTransform="translate(25.5937 18.2812) rotate(90) scale(12.2812 5.68694)">
<stop offset="0.662879" stop-color="#07695D"/>
<stop offset="1" stop-color="#0E4D44"/>
</radialGradient>
<radialGradient id="paint1_radial_1055_271793" cx="0" cy="0" r="1" gradientUnits="userSpaceOnUse" gradientTransform="translate(26.8606 8.32749) rotate(90) scale(10.8204 0.657792)">
<stop stop-color="white" stop-opacity="0.15"/>
<stop offset="1" stop-color="white" stop-opacity="0"/>
</radialGradient>
<radialGradient id="paint2_radial_1055_271793" cx="0" cy="0" r="1" gradientUnits="userSpaceOnUse" gradientTransform="translate(29.5405 14.9138) rotate(59.1703) scale(2.62138 2.55243)">
<stop offset="0.630209" stop-color="#0E4D44"/>
<stop offset="1" stop-color="#0E4D44" stop-opacity="0"/>
</radialGradient>
<radialGradient id="paint3_radial_1055_271793" cx="0" cy="0" r="1" gradientUnits="userSpaceOnUse" gradientTransform="translate(21.2328 18.5041) rotate(117.778) scale(2.77058 3.46661)">
<stop offset="0.459001" stop-color="#0E4D44"/>
<stop offset="1" stop-color="#0E4D44" stop-opacity="0"/>
</radialGradient>
<radialGradient id="paint4_radial_1055_271793" cx="0" cy="0" r="1" gradientUnits="userSpaceOnUse" gradientTransform="translate(23.6204 28.136) rotate(103.457) scale(1.37096 2.20991)">
<stop stop-color="#0E4D44"/>
<stop offset="1" stop-color="#0E4D44" stop-opacity="0"/>
</radialGradient>
<radialGradient id="paint5_radial_1055_271793" cx="0" cy="0" r="1" gradientUnits="userSpaceOnUse" gradientTransform="translate(28.0544 25.6351) rotate(57.3344) scale(2.26121 2.18057)">
<stop offset="0.451171" stop-color="#0E4D44"/>
<stop offset="1" stop-color="#0E4D44" stop-opacity="0"/>
</radialGradient>
<radialGradient id="paint6_radial_1055_271793" cx="0" cy="0" r="1" gradientUnits="userSpaceOnUse" gradientTransform="translate(28.03 18.7517) rotate(30.3345) scale(1.863 4.51275)">
<stop stop-color="#0E4D44"/>
<stop offset="1" stop-color="#0E4D44" stop-opacity="0"/>
</radialGradient>
<radialGradient id="paint7_radial_1055_271793" cx="0" cy="0" r="1" gradientUnits="userSpaceOnUse" gradientTransform="translate(25.4476 29.0273) rotate(90) scale(8.91381 0.591945)">
<stop stop-color="white" stop-opacity="0.15"/>
<stop offset="1" stop-color="white" stop-opacity="0"/>
</radialGradient>
<radialGradient id="paint8_radial_1055_271793" cx="0" cy="0" r="1" gradientUnits="userSpaceOnUse" gradientTransform="translate(23.726 32.8588) rotate(-90) scale(3.86084 15.4434)">
<stop stop-color="#572E24"/>
<stop offset="1" stop-color="#714F4A"/>
</radialGradient>
<radialGradient id="paint9_radial_1055_271793" cx="0" cy="0" r="1" gradientUnits="userSpaceOnUse" gradientTransform="translate(34.525 46.8621) rotate(-132.14) scale(14.9858 14.7348)">
<stop offset="0.170882" stop-color="#7ABFFF"/>
<stop offset="1" stop-color="#5B97CF"/>
</radialGradient>
<linearGradient id="paint10_linear_1055_271793" x1="13.7555" y1="42.8673" x2="21.1822" y2="42.5195" gradientUnits="userSpaceOnUse">
<stop stop-color="#6067B1"/>
<stop offset="1" stop-color="#6067B1" stop-opacity="0"/>
</linearGradient>
<radialGradient id="paint11_radial_1055_271793" cx="0" cy="0" r="1" gradientUnits="userSpaceOnUse" gradientTransform="translate(26.0059 32.5) rotate(90) scale(16.25 21.7862)">
<stop offset="0.50863" stop-color="#7080D3" stop-opacity="0"/>
<stop offset="1" stop-color="#7080D3"/>
</radialGradient>
<linearGradient id="paint12_linear_1055_271793" x1="26.0059" y1="35.5942" x2="26.0059" y2="36.8184" gradientUnits="userSpaceOnUse">
<stop stop-color="#567CC8"/>
<stop offset="1" stop-color="#567CC8" stop-opacity="0"/>
</linearGradient>
<radialGradient id="paint13_radial_1055_271793" cx="0" cy="0" r="1" gradientUnits="userSpaceOnUse" gradientTransform="translate(34.5192 34.9913) rotate(-151.523) scale(9.69177 6.31299)">
<stop offset="0.313107" stop-color="#80C2FF"/>
<stop offset="1" stop-color="#69A6E0"/>
</radialGradient>
<linearGradient id="paint14_linear_1055_271793" x1="12.1754" y1="35.75" x2="27.6129" y2="35.75" gradientUnits="userSpaceOnUse">
<stop stop-color="#6167AE"/>
<stop offset="1" stop-color="#6167AE" stop-opacity="0"/>
</linearGradient>
<linearGradient id="paint15_linear_1055_271793" x1="26" y1="35.3849" x2="26" y2="35.75" gradientUnits="userSpaceOnUse">
<stop stop-color="#556AD1" stop-opacity="0"/>
<stop offset="1" stop-color="#556AD1"/>
</linearGradient>
<linearGradient id="paint16_linear_1055_271793" x1="26" y1="32.2392" x2="26" y2="32.7603" gradientUnits="userSpaceOnUse">
<stop stop-color="#687DE6"/>
<stop offset="1" stop-color="#687DE6" stop-opacity="0"/>
</linearGradient>
<radialGradient id="paint17_radial_1055_271793" cx="0" cy="0" r="1" gradientUnits="userSpaceOnUse" gradientTransform="translate(22.1 24.7) rotate(135) scale(3.21734)">
<stop stop-color="#24CDB9"/>
<stop offset="0.638393" stop-color="#39CFA7"/>
<stop offset="1" stop-color="#10B485"/>
</radialGradient>
<radialGradient id="paint18_radial_1055_271793" cx="0" cy="0" r="1" gradientUnits="userSpaceOnUse" gradientTransform="translate(18.85 13.325) rotate(135) scale(3.21734)">
<stop stop-color="#24CDB9"/>
<stop offset="0.638393" stop-color="#39CFA7"/>
<stop offset="1" stop-color="#10B485"/>
</radialGradient>
<radialGradient id="paint19_radial_1055_271793" cx="0" cy="0" r="1" gradientUnits="userSpaceOnUse" gradientTransform="translate(26.975 5.2) rotate(135) scale(3.21734)">
<stop stop-color="#24CDB9"/>
<stop offset="0.638393" stop-color="#39CFA7"/>
<stop offset="1" stop-color="#10B485"/>
</radialGradient>
<radialGradient id="paint20_radial_1055_271793" cx="0" cy="0" r="1" gradientUnits="userSpaceOnUse" gradientTransform="translate(31.525 10.075) rotate(45) scale(3.21734)">
<stop stop-color="#24CDB9"/>
<stop offset="0.638393" stop-color="#39CFA7"/>
<stop offset="1" stop-color="#10B485"/>
</radialGradient>
<radialGradient id="paint21_radial_1055_271793" cx="0" cy="0" r="1" gradientUnits="userSpaceOnUse" gradientTransform="translate(29.9 21.45) rotate(45) scale(3.21734)">
<stop stop-color="#24CDB9"/>
<stop offset="0.638393" stop-color="#39CFA7"/>
<stop offset="1" stop-color="#10B485"/>
</radialGradient>
<radialGradient id="paint22_radial_1055_271793" cx="0" cy="0" r="1" gradientUnits="userSpaceOnUse" gradientTransform="translate(21.125 20.3125) rotate(135) scale(8.04334)">
<stop stop-color="#24CDB9"/>
<stop offset="0.638393" stop-color="#39CFA7"/>
<stop offset="1" stop-color="#10B485"/>
</radialGradient>
<radialGradient id="paint23_radial_1055_271793" cx="0" cy="0" r="1" gradientUnits="userSpaceOnUse" gradientTransform="translate(17.875 8.9375) rotate(135) scale(8.04334)">
<stop stop-color="#24CDB9"/>
<stop offset="0.638393" stop-color="#39CFA7"/>
<stop offset="1" stop-color="#10B485"/>
</radialGradient>
<radialGradient id="paint24_radial_1055_271793" cx="0" cy="0" r="1" gradientUnits="userSpaceOnUse" gradientTransform="translate(30.875 17.0625) rotate(45) scale(8.04334)">
<stop stop-color="#24CDB9"/>
<stop offset="0.638393" stop-color="#39CFA7"/>
<stop offset="1" stop-color="#10B485"/>
</radialGradient>
</defs>
</svg>
