<svg height="512" viewBox="0 0 128 128" width="512" xmlns="http://www.w3.org/2000/svg"><g><path d="m68.053 57.817a1.75 1.75 0 0 0 -3.342 1.039l6.966 22.387-8.045 7.645-7.994-7.638 7.092-22.384a1.75 1.75 0 1 0 -3.336-1.056l-16.053 50.662a1.75 1.75 0 0 0 2.874 1.8l17.41-16.546 17.313 16.543a1.751 1.751 0 0 0 2.88-1.786zm-19.322 45.233 5.73-18.083 6.631 6.333zm17.435-11.741 6.671-6.34 5.63 18.1z" fill="#0e49b5"/><path d="m80.077 61.5a1.746 1.746 0 0 0 2.369-.715 21.235 21.235 0 1 0 -37.394.1 1.75 1.75 0 1 0 3.075-1.672 17.734 17.734 0 1 1 31.235-.081 1.749 1.749 0 0 0 .715 2.368z" fill="#22b1dd"/><path d="m63.722 17.25a33.513 33.513 0 0 0 -22.755 58.118 1.75 1.75 0 1 0 2.377-2.568 30.014 30.014 0 1 1 40.756 0 1.75 1.75 0 1 0 2.377 2.568 33.513 33.513 0 0 0 -22.755-58.118z" fill="#22b1dd"/><path d="m95.627 110.75h-63.254a1.75 1.75 0 1 1 0-3.5h63.254a1.75 1.75 0 1 1 0 3.5z" fill="#fecd1a"/><circle cx="63.722" cy="50.764" fill="#fd3a69" r="8.032" transform="matrix(.231 -.973 .973 .231 -.365 101.066)"/><path d="m66.217 50.764a2.494 2.494 0 1 1 -.426-1.4 2.495 2.495 0 0 1 .426 1.4z" fill="#fecd1a"/></g></svg>