<?xml version="1.0" encoding="UTF-8" standalone="no"?>
<svg xmlns="http://www.w3.org/2000/svg" class="icon" height="14" p-id="19706" t="1706338421157" version="1.1" viewBox="0 0 1024 1024" width="14">
    <path d="M714.667 132.267c-21.334-10.667-46.934-2.134-57.6 19.2s-2.134 46.933 19.2 57.6c121.6 61.866 198.4 185.6 198.4 324.266C874.667 733.867 712.533 896 512 896S149.333 733.867 149.333 533.333c0-138.666 76.8-262.4 198.4-324.266 21.334-10.667 29.867-36.267 19.2-57.6-10.666-21.334-36.266-29.867-57.6-19.2C157.867 209.067 64 362.667 64 533.333c0 247.467 200.533 448 448 448s448-200.533 448-448c0-170.666-93.867-324.266-245.333-401.066" fill="#d81e06" p-id="19707"/>
    <path d="M469.333 85.333v448C469.333 556.8 488.533 576 512 576s42.667-19.2 42.667-42.667v-448c0-23.466-19.2-42.666-42.667-42.666s-42.667 19.2-42.667 42.666" fill="#d81e06" p-id="19708"/>
</svg>
