<svg t="1705826311189" class="icon" viewBox="0 0 1024 1024" version="1.1" xmlns="http://www.w3.org/2000/svg" p-id="55994" width="200" height="200"><path d="M1013.02725 961.829L698.50925 643.653h208.46c14.63-7.314 25.6-18.275 25.6-36.575 0-10.984-3.66-18.284-10.97-25.6-7.325-7.32-18.29-10.985-29.26-10.985h-277.94c-7.323 0-18.288 3.665-25.6 14.63-7.324 7.315-10.974 14.625-10.974 25.601l-3.67 288.915c0 10.98 3.67 18.285 10.984 25.6 7.32 7.32 18.285 10.98 25.6 10.98 18.285 0 32.92-14.625 36.57-32.925v-212.11l314.52 321.825c14.63 14.62 36.579 14.62 51.198 0 14.63-14.605 14.63-36.55 0-51.18zM10.97225 58.52l318.182 321.823H117.03025c-18.277 3.66-32.91 21.943-32.91 40.222 0 7.32 3.65 14.623 10.982 21.942 7.31 7.318 14.617 10.978 25.6 10.978l288.899 3.663c10.972 0 18.29-3.663 25.6-10.973 7.323-7.323 10.973-14.628 10.973-25.6V135.31c0-10.975-3.65-21.933-10.973-29.255-3.66-7.32-14.627-10.983-21.94-10.983-14.617 0-29.26 10.983-32.92 25.6v212.123L62.17325 10.98c-14.618-14.627-36.573-14.627-51.2 0-14.618 14.623-14.618 36.567 0 47.54zM616.06025 460.803h288.91c18.29 0 36.59-14.623 36.59-36.578 0-18.282-14.63-32.916-32.93-36.577h-212.12l318.179-325.483c14.62-14.623 10.979-36.578-3.66-51.2-14.619-14.623-36.569-14.623-47.539 0L648.97025 336.449V120.676c-7.31-14.612-21.939-25.6-36.574-25.6-10.975 0-18.284 3.667-25.6 10.987-7.31 7.317-10.975 18.28-10.975 29.268v285.25c0 10.977 3.665 18.282 10.975 25.6 10.975 7.304 18.295 14.622 29.264 14.622zM409.59825 566.858H120.69425c-18.29 0-36.587 14.62-36.587 36.58 0 18.29 14.623 32.92 32.92 36.58h212.117L10.96725 961.838c-14.623 14.616-14.623 36.576 0 51.2 14.623 14.616 36.578 14.616 51.2 0l314.526-321.83v215.77c3.65 14.63 18.268 25.6 36.57 25.6 10.973 0 18.28-3.65 25.6-10.97 7.313-7.32 10.973-18.28 10.973-29.26V607.089c0-10.97-3.66-18.28-10.973-25.6-10.97-10.96-18.293-14.63-29.265-14.63z" p-id="55995" fill="#d4237a"></path></svg>