<svg t="1711017372069" class="icon" viewBox="0 0 1024 1024" version="1.1" xmlns="http://www.w3.org/2000/svg" p-id="6014" data-spm-anchor-id="a313x.search_index.0.i13.6b033a81CpXI1s" width="200" height="200"><path d="M570.624 759.808a27.392 27.392 0 0 1-26.24 32h-33.472a26.112 26.112 0 0 1-26.24-22.72l-11.392-68.928a27.328 27.328 0 0 0-26.304-22.72H314.816c-10.688 0-19.904 6.4-24.192 15.616l-37.632 83.136a27.52 27.52 0 0 1-24.192 15.616H192.64a26.688 26.688 0 0 1-24.192-38.4l230.976-473.6a26.816 26.816 0 0 1 24.192-14.912h54.656v-0.704l92.416 495.616zM354.56 556.8c-8.576 17.728 4.928 38.4 24.128 38.4h45.44a26.816 26.816 0 0 0 26.304-31.296l-24.832-154.816-2.112-0.704L354.56 556.736z m426.304-134.912h-137.856a41.984 41.984 0 0 1-41.92-41.92c0-23.424 19.2-41.856 41.92-41.856h137.856c23.488 0 41.984 19.2 41.984 41.856a41.6 41.6 0 0 1-41.984 41.92z m0 148.416h-137.856a41.984 41.984 0 0 1-41.92-41.92c0-23.424 19.2-41.856 41.92-41.856h137.856c23.488 0 41.984 19.2 41.984 41.856a41.984 41.984 0 0 1-41.984 41.92z m7.872 147.712H650.88a41.984 41.984 0 0 1-41.984-41.92c0-23.424 19.2-41.92 41.984-41.92h137.856c23.424 0 41.92 19.2 41.92 41.92a41.088 41.088 0 0 1-41.92 41.92zM924.48 1024H100.16A100.48 100.48 0 0 1 0 923.904V100.096C0 44.8 45.44 0 100.224 0h823.552C979.2 0 1024 45.44 1024 100.096v823.04A99.584 99.584 0 0 1 924.48 1024zM100.928 76.672a23.68 23.68 0 0 0-23.488 23.424v823.04c0 12.8 10.688 23.488 23.488 23.488h823.552a23.68 23.68 0 0 0 23.488-23.488V100.096a23.68 23.68 0 0 0-23.488-23.424H100.928z" fill="#d4237a" fill-opacity=".85" p-id="6015" data-spm-anchor-id="a313x.search_index.0.i12.6b033a81CpXI1s" class="selected"></path></svg>