<?xml version="1.0" encoding="UTF-8" standalone="no"?>
<svg xmlns="http://www.w3.org/2000/svg" class="icon" height="14" p-id="34715" t="1705825921905" version="1.1" viewBox="0 0 1024 1024" width="14">
    <path d="M366.912 300.8L151.488 535.488l202.624 234.624a25.6 25.6 0 0 1 0 29.888l-27.712 29.888a20.608 20.608 0 0 1-29.888 0l-2.112-2.176L51.2 550.4c-6.4-8.512-6.4-21.312 0-27.712l256-279.488c6.4-8.512 19.2-8.512 27.712-2.112l2.176 2.112 27.712 29.888c8.512 6.4 8.512 19.2 2.112 27.712z m512 234.688L672 300.8a25.6 25.6 0 0 1 0-29.888l27.712-29.824a20.608 20.608 0 0 1 29.888 0l2.112 2.112 245.376 277.312c6.4 8.576 6.4 21.376 0 27.776l-256 279.424a22.848 22.848 0 0 1-29.888 2.176l-27.712-29.888a20.608 20.608 0 0 1 0-29.888l215.424-234.624zM554.688 61.888l42.624 4.224c10.688 2.176 19.2 12.8 19.2 23.488l-102.4 874.688a24.96 24.96 0 0 1-23.424 19.2L448 979.2a24.96 24.96 0 0 1-19.2-23.488L531.2 81.088c2.112-12.8 12.8-21.376 23.488-19.2z" fill="#00ADB5" p-id="34716"/>
</svg>
