<?xml version="1.0" encoding="UTF-8" standalone="no"?>
<svg xmlns="http://www.w3.org/2000/svg" class="icon" height="14" p-id="7924" t="1708827023384" version="1.1" viewBox="0 0 1024 1024" width="14">
    <path d="M999.036816 490.093532l-230.78209-230.782089c-14.774129-14.774129-39.227861-14.774129-54.00199 0-14.774129 14.774129-14.774129 39.227861 0 54.00199l163.024876 163.024875H420.298507c-20.887562 0-38.208955 17.321393-38.208955 38.208956s17.321393 38.208955 38.208955 38.208955h461.56418l-168.119403 168.119403c-14.774129 14.774129-14.774129 39.227861 0 54.00199 7.641791 7.641791 17.321393 11.20796 27.000995 11.20796s19.359204-3.566169 27.000995-11.20796l230.782089-230.78209c15.283582-14.774129 15.283582-39.227861 0.509453-54.00199z" fill="#d81e06" p-id="7925"/>
    <path d="M624.079602 932.298507H114.626866c-12.736318 0-22.925373-10.189055-22.925373-22.925373v-789.651741c0-12.736318 10.189055-22.925373 22.925373-22.925373h509.452736c20.887562 0 38.208955-17.321393 38.208955-38.208955S644.967164 20.378109 624.079602 20.378109H114.626866C59.60597 20.378109 15.283582 64.700498 15.283582 119.721393v789.651741c0 55.020896 44.322388 99.343284 99.343284 99.343284h509.452736c20.887562 0 38.208955-17.321393 38.208955-38.208955s-17.321393-38.208955-38.208955-38.208956z" fill="#d81e06" p-id="7926"/>
</svg>
