<?xml version="1.0" encoding="UTF-8" standalone="no"?>
<svg xmlns="http://www.w3.org/2000/svg" class="icon" height="14" p-id="79765" t="1705827355450" version="1.1" viewBox="0 0 1081 1024" width="14">
    <path d="M675.461741 924.932278H122.033421A22.965699 22.965699 0 0 1 99.067722 900.615655V122.033421a22.965699 22.965699 0 0 1 22.965699-22.965699h680.865436a22.965699 22.965699 0 0 1 22.965699 22.965699v244.967459a49.533861 49.533861 0 1 0 99.067722 0V122.033421A122.033421 122.033421 0 0 0 802.898857 0H122.033421A122.483729 122.483729 0 0 0 0 122.033421V900.615655a122.483729 122.483729 0 0 0 122.033421 122.483729H675.461741a49.533861 49.533861 0 1 0 0-99.067722z" fill="#F77724" p-id="79766"/>
    <path d="M1077.136324 720.492524a50.884785 50.884785 0 0 0-10.807388-16.211082l-185.977133-185.977132a49.533861 49.533861 0 0 0-70.248021 0 49.083553 49.083553 0 0 0 0 69.797713l101.769569 101.769569H457.512753a49.533861 49.533861 0 0 0 0 99.067722h454.360598L810.55409 891.159191a49.533861 49.533861 0 0 0 35.12401 84.657871 50.884785 50.884785 0 0 0 35.124011-14.40985l185.977133-185.977133a63.493404 63.493404 0 0 0 10.807387-16.211082 49.984169 49.984169 0 0 0-0.450307-38.726473zM274.687775 329.175022a100.418646 100.418646 0 1 0 100.418645-100.418646A99.968338 99.968338 0 0 0 274.687775 329.175022z" fill="#F77724" p-id="79767"/>
</svg>
