<?xml version="1.0" encoding="UTF-8" standalone="no"?>
<svg xmlns="http://www.w3.org/2000/svg" class="icon" height="14" p-id="12782" t="1708827217584" version="1.1" viewBox="0 0 1024 1024" width="14">
    <path d="M884.8 896c-11.2 0-22.5-2.7-32.9-8.2L775 847.3h-2.6l-74.2 39c-22.4 11.8-49.8 12.6-71.5-0.5-25.5-15.3-38.4-43.8-33.5-72.6l14.6-85.6c-0.3-0.9-0.6-1.6-0.8-2.5l-60-58.5c-18.2-17.7-27.4-43.4-21.7-68.2 6.6-28.9 29.8-50.1 58.6-54.3l85.9-12.5c0.8-0.6 1.4-1 2.2-1.6l37.1-75.2c11.2-22.7 32.9-39.5 58.2-41.7 29.6-2.6 56.8 12.9 69.7 39.1l38.4 78.1c0.8 0.6 1.4 1 2.2 1.6l83 12c25 3.7 47.8 19.1 57.7 42.4 11.7 27.3 5.4 58.1-15.5 78.4l-62.2 60.6c-0.3 0.9-0.6 1.6-0.8 2.5l14.1 82.2c4.5 26.1-4 53.5-24.5 70.1-13.2 10.5-28.9 15.9-44.6 15.9zM773.7 778.4c11.3 0 22.5 2.7 32.8 8.1l77.3 40.6c0.6 0.3 1 0.6 2.1-0.1 1-0.7 0.9-1.3 0.8-1.9l-14.5-85.6c-4-23.2 3.7-46.9 20.6-63.2l62.2-60.6c0.5-0.5 0.9-0.9 0.5-2.1-0.3-1.1-1-1.3-1.6-1.4L868 599.7c-23.3-3.4-43.4-17.9-53.8-39.1l-37.6-76.2c-1-2.2-4.1-2.2-5.1 0l-37.6 76.2c-10.4 21-30.5 35.7-53.8 39.1l-85.9 12.5c-0.6 0.1-1.3 0.2-1.6 1.4-0.3 1.1 0 1.6 0.5 2.1l62.2 60.7c16.8 16.3 24.5 40 20.6 63.2l-14.6 85.6c-0.1 0.7-0.2 1.3 0.8 1.9 1 0.7 1.5 0.5 2.1 0.1l77.3-40.6c9.7-5.5 21-8.2 32.2-8.2z" fill="#d4237a" p-id="12783"/>
    <path d="M517.7 827.4H68.6V336H955.5v141.7c0 19 15.3 34.3 34.3 34.3 19 0 34.3-15.3 34.3-34.3V336c0-37.7-30.9-68.6-68.6-68.6H512.2v-70.9c0-37.7-30.9-68.6-68.6-68.6h-375C30.9 128 0 158.9 0 196.6v630.8C0 865.1 30.9 896 68.6 896h449.1c19 0 34.3-15.3 34.3-34.3 0-19-15.3-34.3-34.3-34.3zM68.6 196.6h375.1v70.9H68.6v-70.9z" fill="#d4237a" p-id="12784"/>
</svg>
