<?xml version="1.0" encoding="utf-8"?>
<!-- Generator: Adobe Illustrator 16.0.0, SVG Export Plug-In . SVG Version: 6.00 Build 0)  -->
<!DOCTYPE svg PUBLIC "-//W3C//DTD SVG 1.0//EN" "http://www.w3.org/TR/2001/REC-SVG-20010904/DTD/svg10.dtd">
<svg version="1.0" id="Layer_1" xmlns="http://www.w3.org/2000/svg" xmlns:xlink="http://www.w3.org/1999/xlink" x="0px" y="0px"
	 width="100px" height="100px" viewBox="0 0 100 100" enable-background="new 0 0 100 100" xml:space="preserve">
<path d="M88.047,78.613L65.378,55.944C68.288,51.321,70,45.867,70,40c0-16.569-13.431-30-30-30C23.431,9.994,10,23.431,10,40
	c0,10.4,5.293,19.56,13.333,24.941V36.667H30v31.584c2.126,0.752,4.349,1.292,6.667,1.546V23.333h6.666v46.419
	c2.318-0.261,4.541-0.798,6.667-1.56V30h6.667v36.086L78.62,88.04c2.601,2.611,6.822,2.611,9.427,0.007
	C90.651,85.437,90.651,81.218,88.047,78.613z"/>
</svg>
