<svg t="1705825107317" class="icon" viewBox="0 0 1024 1024" version="1.1" xmlns="http://www.w3.org/2000/svg" p-id="7808" width="14" height="14"><path d="M442.5 821.1c-101.1 0-196.2-39.4-267.7-110.9-147.6-147.6-147.6-387.8 0-535.4C246.3 103.4 341.4 64 442.5 64s196.2 39.4 267.7 110.9S821 341.4 821 442.6s-39.4 196.2-110.9 267.7-166.5 110.8-267.6 110.8z m0-670.3c-74.7 0-149.5 28.4-206.4 85.4-113.8 113.8-113.8 299 0 412.8s298.9 113.8 412.8 0c113.8-113.8 113.8-299 0-412.8-56.9-56.9-131.7-85.4-206.4-85.4z" fill="#7373FF" p-id="7809"></path><path d="M916.5 960c-11.1 0-22.2-4.2-30.7-12.7l-237-237c-16.9-16.9-16.9-44.4 0-61.3s44.4-16.9 61.3 0l237 237c16.9 16.9 16.9 44.4 0 61.3-8.4 8.5-19.4 12.7-30.6 12.7z" fill="#7373FF" p-id="7810"></path></svg>