<svg t="1705826044118" class="icon" viewBox="0 0 1117 1024" version="1.1" xmlns="http://www.w3.org/2000/svg" p-id="37103" width="14" height="14"><path d="M69.786683 139.573365h977.013557a69.786683 69.786683 0 0 0 0-139.573365H69.786683a69.786683 69.786683 0 0 0 0 139.573365zM69.786683 383.826755h558.293461a69.786683 69.786683 0 0 0 0-139.573366H69.786683a69.786683 69.786683 0 0 0 0 139.573366zM69.786683 628.080144h279.14673a69.786683 69.786683 0 0 0 0-139.573365H69.786683a69.786683 69.786683 0 0 0 0 139.573365zM302.408958 732.760168H69.786683a69.786683 69.786683 0 0 0 0 139.573365h232.622275a69.786683 69.786683 0 0 0 0-139.573365zM865.820109 312.295405a69.786683 69.786683 0 0 0-98.631844 0L561.550173 517.817185l-65.832104 65.832104L405.344315 674.604599a69.786683 69.786683 0 0 0 0 98.631845l230.179742 230.296052a69.786683 69.786683 0 0 0 98.748156 0l90.490065-90.490065 65.715793-65.715793 205.638091-206.103336a69.786683 69.786683 0 0 0 0-98.748156zM701.356161 904.435407a23.262228 23.262228 0 0 1-32.916052 0L503.97616 739.971458a23.262228 23.262228 0 0 1 0-32.916052l58.155569-58.155569 197.728934 197.728935zM997.484317 608.30725L824.762278 781.02929l-197.728934-197.728934 173.070973-172.373106a23.262228 23.262228 0 0 1 32.916052 0l164.463948 164.463948a23.262228 23.262228 0 0 1 0 32.916052z" fill="#1296db" p-id="37104"></path></svg>