<?xml version="1.0" encoding="utf-8"?>
<!-- Generator: Adobe Illustrator 16.0.0, SVG Export Plug-In . SVG Version: 6.00 Build 0)  -->
<!DOCTYPE svg PUBLIC "-//W3C//DTD SVG 1.0//EN" "http://www.w3.org/TR/2001/REC-SVG-20010904/DTD/svg10.dtd">
<svg version="1.0" id="Layer_1" xmlns="http://www.w3.org/2000/svg" xmlns:xlink="http://www.w3.org/1999/xlink" x="0px" y="0px"
	 width="100px" height="100px" viewBox="0 0 100 100" enable-background="new 0 0 100 100" xml:space="preserve">
<polygon points="38.333,23.154 38.333,46.979 61.667,46.979 61.667,26.071 "/>
<polygon points="38.333,76.843 61.667,73.926 61.667,53.646 38.333,53.646 "/>
<path d="M68.333,46.979H90V32.946c0-1.833-1.487-3.52-3.308-3.747l-18.359-2.295V46.979z"/>
<path d="M31.667,46.979V22.321l-18.359-2.295C11.487,19.798,10,21.113,10,22.946v24.033H31.667z"/>
<path d="M31.667,53.646H10v23.405c0,1.836,1.487,3.151,3.308,2.923l18.359-2.298V53.646z"/>
<path d="M68.333,53.646v19.447l18.359-2.292c1.82-0.228,3.308-1.914,3.308-3.75V53.646H68.333z"/>
</svg>
