<svg t="1706106904896" class="icon" viewBox="0 0 1024 1024" version="1.1" xmlns="http://www.w3.org/2000/svg" p-id="26212" width="200" height="200"><path d="M737.3 887.1l-69.1-102.3c-3.5-5.1-10.4-6.5-15.5-3s-6.5 10.4-3 15.5l69.1 102.3c3.5 5.1 10.4 6.5 15.5 3 5.1-3.4 6.4-10.4 3-15.5z m-47.6-130.4c-5.1 3.5-6.5 10.4-3 15.6l69.1 102.3c3.5 5.1 10.4 6.5 15.5 3s6.5-10.4 3-15.5l-69.1-102.3c-3.4-5.2-10.4-6.5-15.5-3.1z m103.2 92.8c3.5 5.1 10.4 6.5 15.5 3 5.1-3.4 6.5-10.4 3-15.5l-69.1-102.4c-3.5-5.1-10.4-6.5-15.5-3s-6.5 10.4-3 15.5l69.1 102.4z m32.6 15.5c-3 2-79.7 53.8-84.1 56.8-4.3 2.9-4 7.8-0.3 9.2 5 1.9 76.2 27.1 80.6 28.6 3.9 1.4 8.9-1.9 9.1-6.1 0.3-6.5 3.3-81.6 3.4-85.3 0.3-4.6-4.7-5.8-8.7-3.2zM718.1 696l-13.6-20.1c-3.8-5.6-13.8-5.4-22.4 0.5l-62.5 42.2c-8.6 5.8-12.6 15.1-8.8 20.6l13.6 20.1c3.8 5.6 13.8 5.3 22.4-0.5l62.5-42.3c8.6-5.7 12.5-14.9 8.8-20.5z" fill="#1296db" p-id="26213"></path><path d="M575 874.7H267.1c-23.5 0-42.6-19-42.6-42.6V191.7c0-23.5 19.1-42.6 42.6-42.6h489.8c23.5 0 42.6 19.1 42.6 42.6v453.8c4.9-0.3 9.9-0.5 14.9-0.5 24.5 0 48.1 3.7 70.3 10.5V149.2c0-47-38.1-85.2-85.2-85.2h-575c-47 0-85.2 38.2-85.2 85.2v725.5c0 47.1 38.1 85.2 85.2 85.2h362.3c-7.8-23.7-12.1-48.9-12.1-75.2 0.1-3.4 0.1-6.7 0.3-10z" fill="#1296db" p-id="26214"></path></svg>