<svg t="1705832069620" class="icon" viewBox="0 0 1029 1024" version="1.1" xmlns="http://www.w3.org/2000/svg" p-id="142766" width="200" height="200"><path d="M535.1936 0h69.54496v95.27808c124.17536 0.67584 248.35072-1.3568 373.20192 0.67584a40.63744 40.63744 0 0 1 45.1584 45.1584c1.91488 234.57792 0 469.26848 1.1264 703.8464-1.1264 24.04864 2.25792 50.688-11.2896 72.02304-17.04448 12.42112-38.94272 11.2896-58.81344 11.2896h-349.1584v95.27808h-72.92416C354.9184 990.9248 177.4592 960.55808 0 928.72704V95.49312C178.36032 63.55968 356.8384 32.512 535.1936 0z" fill="#EC4F45" p-id="142767"></path><path d="M212.1472 742.64576c36.70016 0 65.37216-9.58464 86.016-28.75392 20.64384-19.16928 30.96576-48.57856 30.96576-88.22784V309.12512H254.90944v313.09824c0 19.33312-3.52256 34.4064-10.56768 45.21984-7.04512 10.81344-20.0704 16.22016-39.07584 16.22016-5.57056 0-11.0592-0.24576-16.46592-0.73728a372.4288 372.4288 0 0 1-15.48288-1.72032v58.9824c5.57056 0.65536 11.96032 1.2288 19.16928 1.72032a291.2256 291.2256 0 0 0 19.6608 0.73728zM604.73856 130.94912v762.10176h383.81568V130.94912z" fill="#FFFFFF" p-id="142768"></path><path d="M645.48864 294.2976h302.42304v110.29504h-302.42304V294.2976z m0 164.70528h302.42304v110.28992h-302.42304V459.008z m0 164.70016h302.42304v110.29504h-302.42304v-110.29504z" fill="#EC4F45" p-id="142769"></path></svg>