<svg t="1705831857017" class="icon" viewBox="0 0 1024 1024" version="1.1" xmlns="http://www.w3.org/2000/svg" p-id="139888" width="200" height="200">
    <defs>
        <linearGradient id="flatlaf-a" x1="50%" x2="50%" y1="0%" y2="100%">
            <stop offset="0%" stop-color="#DD6900"/>
            <stop offset="120%" stop-color="#D45500"/>
        </linearGradient>
    </defs>
    <g fill="none" fill-rule="evenodd">
        <rect width="4000" height="4000" fill="url(#flatlaf-a)"/>
        <path d="M81.214934 376.520498c0 22.655703-13.183827 32.895568-29.247616 32.895568a56.959252 56.959252 0 0 1-32.191578-10.943856L0 447.495567c16.063789 10.943856 36.54352 17.53577 57.791241 17.535769 44.607415 0 87.038858-29.247616 87.038858-90.686809V105.16406h-63.615165v271.356438zM112.638522 0.01344a36.351523 36.351523 0 0 0-37.311511 38.015501c0 21.183722 16.063789 37.31151 37.311511 37.31151 23.423693 0 38.783491-16.063789 38.783491-37.31151C151.422013 15.373238 136.062214 0.01344 112.638522 0.01344zM267.324491 175.435137c0-16.063789 14.655808-22.655703 35.135539-22.655702 22.655703 0 51.903319 8.767885 76.798992 23.423692l23.423693-46.079395a177.149675 177.149675 0 0 0-95.870742-27.839634c-52.671309 0-98.750704 24.895673-98.750704 78.974963-0.703991 92.862781 136.062214 66.559126 136.062214 114.814493 0 16.831779-16.831779 24.895673-38.783491 24.895673a147.198068 147.198068 0 0 1-88.510838-32.895568l-21.951712 44.607415c27.071645 24.127683 68.031107 36.54352 107.518589 36.54352 56.319261 0 103.870637-25.599664 103.870637-78.974964 0-93.630771-138.942176-70.975068-138.942177-114.814493zM574.136464 102.284098a133.502248 133.502248 0 1 0 0 267.004495 133.502248 133.502248 0 0 0 0-267.004495z m0 212.54121a79.102962 79.102962 0 1 1 0-158.205924 79.102962 79.102962 0 0 1 0 158.205924zM888.37234 102.284098c-74.815018 0-135.678219 60.799202-135.678219 135.61422v131.326276h63.295169V237.898318a72.38305 72.38305 0 0 1 144.702101 0v131.326276H1023.98656V237.898318a135.678219 135.678219 0 0 0-135.61422-135.61422z" fill="#FFF" p-id="139889"></path>
        <path d="M937.587694 512.00672H615.799918c-47.359378 0-86.398866 38.399496-86.398866 86.398866v339.195548c0 47.359378 39.039488 86.398866 86.398866 86.398866h321.787776c47.359378 0 86.398866-39.039488 86.398866-86.398866v-339.195548C1023.98656 550.406216 984.947073 512.00672 937.587694 512.00672z m-196.349423 430.074355c0 9.599874-7.039908 17.919765-17.279773 17.919765h-108.15858c-10.239866 0-17.279773-8.319891-17.279774-17.919765v-103.038647c0-9.599874 7.039908-17.919765 17.279774-17.919765h108.094581c10.239866 0 17.279773 8.319891 17.279773 17.919765v103.038647z m0-206.077295c0 8.959882-7.039908 16.639782-17.279773 16.639782h-108.15858a16.639782 16.639782 0 0 1-17.279774-16.639782V632.325141c0-9.599874 7.039908-17.279773 17.279774-17.279773h108.094581c6.399916 0 12.15984 3.199958 14.719807 8.959882 1.919975 1.919975 2.559966 4.479941 2.559966 8.319891v103.678639z m213.629196 206.077295c0 9.599874-7.039908 17.919765-17.279773 17.919765h-108.094581c-10.239866 0-17.279773-8.319891-17.279773-17.919765v-103.038647c0-9.599874 7.039908-17.919765 17.279773-17.919765h108.094581c10.239866 0 17.279773 8.319891 17.279773 17.919765v103.038647z m0-206.077295c0 8.959882-7.039908 16.639782-17.279773 16.639782h-108.094581a16.639782 16.639782 0 0 1-17.279773-16.639782V632.325141c0-3.83995 0.639992-6.399916 2.559966-8.319891 2.559966-5.759924 8.319891-8.959882 14.719807-8.959882h108.094581c10.239866 0 17.279773 7.679899 17.279773 17.279773v103.678639z" fill="#FFF" p-id="139890"></path>
        <path d="M420.346483 962.240811c11.007856 6.655913 8.639887 13.69582 0 13.69582-108.286579-1.471981-230.07698-93.182777-230.07698-198.525395v-3.071959H121.9184c-25.535665 0-36.223525-14.655808-21.695715-32.76757l135.166226-167.997795c14.527809-18.047763 38.271498-18.047763 52.799307 0.063999l133.822243 166.781811c14.527809 18.047763-0.255997 33.983554-21.823713 33.983554H328.059694v25.215669c0 72.895043 31.487587 128.574312 92.286789 162.621866z" fill="#FFF" p-id="139891"></path>
    </g>
</svg>