<svg t="1705832365558" class="icon" viewBox="0 0 1170 1024" version="1.1" xmlns="http://www.w3.org/2000/svg" p-id="147922" width="200" height="200"><path d="M199.972571 283.648h815.542858V186.88a19.017143 19.017143 0 0 0-19.382858-19.382857H505.782857L419.328 64.292571H25.819429a19.017143 19.017143 0 0 0-19.382858 19.309715v850.285714c0 10.971429 8.411429 19.382857 19.382858 19.382857h45.787428l105.837714-650.24a23.990857 23.990857 0 0 1 22.528-19.382857z m514.194286 315.465143a33.206857 33.206857 0 0 0-27.794286 12.214857c-6.363429 8.411429-10.24 21.942857-10.24 40.667429 0 18.724571 3.218286 32.256 10.24 40.667428 7.168 8.338286 16.822857 12.214857 28.452572 12.214857a35.84 35.84 0 0 0 29.037714-12.214857c7.094857-8.411429 10.24-22.601143 10.24-43.227428 0-17.408-3.803429-30.354286-10.898286-38.765715a39.789714 39.789714 0 0 0-29.037714-11.556571z m427.154286-235.52H260.608c-10.386286 0-20.699429 8.411429-21.942857 18.724571l-100.059429 552.96a15.286857 15.286857 0 0 0 15.506286 18.651429h880.64c10.24 0 20.626286-8.411429 21.942857-18.724572l99.986286-552.886857a15.506286 15.506286 0 0 0-15.506286-18.724571zM397.970286 660.48c0 21.211429-1.901714 37.376-5.851429 48.347429a59.318857 59.318857 0 0 1-22.528 28.379428c-11.629714 7.753143-25.819429 11.629714-43.885714 11.629714-18.724571 0-33.499429-2.56-43.885714-7.753142a50.688 50.688 0 0 1-23.844572-22.601143c-5.851429-9.654857-8.996571-21.942857-10.313143-36.059429l55.515429-7.753143a60.708571 60.708571 0 0 0 1.901714 18.066286 21.065143 21.065143 0 0 0 7.094857 9.654857c1.901714 1.901714 5.12 2.56 9.654857 2.56 6.509714 0 10.971429-2.56 14.189715-7.094857 3.218286-4.461714 4.534857-12.873143 4.534857-24.502857V559.104h58.075428v101.302857h-0.658285z m187.757714 58.002286a61.366857 61.366857 0 0 1-27.794286 23.259428c-11.556571 5.12-27.062857 7.753143-45.129143 7.753143-31.597714 0-53.540571-5.851429-65.828571-18.066286a70.436571 70.436571 0 0 1-20.626286-46.445714l54.857143-3.218286a51.492571 51.492571 0 0 0 7.094857 20.626286c5.851429 7.753143 14.189714 11.629714 25.819429 11.629714a28.891429 28.891429 0 0 0 19.309714-5.851428 17.042286 17.042286 0 0 0 6.509714-13.531429c0-5.12-1.974857-8.996571-6.509714-12.873143-4.461714-3.876571-14.189714-7.753143-29.622857-10.971428-25.161143-5.851429-43.227429-13.531429-54.198857-22.601143a45.348571 45.348571 0 0 1-16.091429-36.132571c0-9.654857 2.56-18.724571 8.338286-27.062858a56.32 56.32 0 0 1 25.161143-20.041142c10.971429-5.12 26.477714-7.094857 45.787428-7.094858 23.844571 0 41.910857 4.534857 54.857143 13.531429 12.214857 9.069714 19.968 23.259429 22.601143 42.642286l-54.198857 3.218285c-1.316571-8.411429-4.534857-14.848-9.069714-18.066285a28.891429 28.891429 0 0 0-19.309715-5.851429 23.332571 23.332571 0 0 0-15.506285 4.534857c-3.876571 3.218286-5.12 6.436571-5.12 10.313143 0 3.218286 1.243429 5.851429 4.461714 7.753143 2.56 2.56 9.069714 4.534857 19.382857 7.094857 25.161143 5.12 43.154286 10.971429 54.125714 16.822857 10.971429 5.778286 18.724571 12.214857 23.917715 20.626286 5.12 8.338286 7.753143 17.408 7.753143 27.721143a62.244571 62.244571 0 0 1-10.971429 30.281143z m214.820571-13.531429a77.750857 77.750857 0 0 1-31.597714 32.914286c-14.189714 7.753143-31.012571 11.629714-52.297143 11.629714-21.211429 0-38.692571-3.218286-52.224-10.313143a78.848 78.848 0 0 1-33.572571-31.597714 109.421714 109.421714 0 0 1-12.873143-54.857143c0-30.354286 8.338286-54.198857 25.819429-71.68 16.749714-16.749714 40.594286-25.746286 70.948571-25.746286 30.939429 0 54.857143 8.411429 72.265143 25.161143 16.822857 16.822857 25.161143 40.009143 25.161143 70.290286-0.731429 21.942857-4.534857 40.009143-11.629715 54.198857z m221.257143 40.667429h-54.125714l-70.363429-102.546286v102.546286h-54.125714v-186.514286h54.125714l70.290286 103.277714V559.104h54.198857v186.441143z" fill="#2C7CD3" p-id="147923"></path></svg>