<svg t="1705831572897" class="icon" viewBox="0 0 1024 1024" version="1.1" xmlns="http://www.w3.org/2000/svg" p-id="131990" width="200" height="200">
    <defs>
        <linearGradient id="flatlaf-a" x1="50%" x2="50%" y1="0%" y2="100%">
            <stop offset="0%" stop-color="#DD6900"/>
            <stop offset="100%" stop-color="#D45500"/>
        </linearGradient>
    </defs>
    <g fill="none" fill-rule="evenodd">
        <rect width="2000" height="2000" fill="url(#flatlaf-a)"/>
        <path d="M512 682.66496a42.66496 42.66496 0 1 1 42.66496-42.66496H640c0-70.69184-57.30816-128-128-128s-128 57.30816-128 128 57.30816 128 128 128a42.66496 42.66496 0 1 1-42.66496 42.66496H384c0 70.69184 57.30816 128 128 128s128-57.30816 128-128-57.30816-128-128-128zM256 512v298.66496a42.66496 42.66496 0 0 1-85.32992 0V768H85.33504v42.66496c0 70.69184 57.30816 128 128 128s128-57.30816 128-128V512H256zM170.66496 170.66496H689.92l163.41504 163.41504v135.25504h85.33504V298.66496l-213.33504-213.33504h-640v384h85.33504V170.66496z m640 426.67008A42.66496 42.66496 0 0 0 768 640v170.66496a42.66496 42.66496 0 0 0 42.7008 42.63424 42.66496 42.66496 0 0 0 42.63424-42.63424V640a42.66496 42.66496 0 0 0-42.67008-42.66496m0-85.33504c70.69184 0 128 57.30816 128 128v170.66496c0 70.69184-57.30816 128-128 128s-128-57.30816-128-128V640c0-70.69184 57.30816-128 128-128z" fill="#FFF" p-id="131991"></path>
        <path d="M321.2544 260.00384h285.81376V325.7856H321.2544zM321.2544 388.54656h285.81376v65.78176H321.2544z" fill="#FFF" p-id="131992"></path>
    </g>
</svg>