<svg t="1705833045121" class="icon" viewBox="0 0 1024 1024" version="1.1" xmlns="http://www.w3.org/2000/svg" p-id="166159" width="200" height="200"><path d="M116.044066 671.98502L460.804794 1016.745748a24.183503 24.183503 0 0 0 7.565833 5.089161c0.087882 0.039946 0.167775 0.09587099 0.263646 0.135818a24.071654 24.071654 0 0 0 3.89077101 1.206379c0.239678 0.055925 0.463377 0.159785 0.71104499 0.207721 1.597853 0.319571 3.21967399 0.487345 4.833505 0.487345L526.860032 1023.872172a24.279375 24.279375 0 0 0 19.66956899-10.090441L888.34229001 671.98502a24.367256 24.367256 0 0 0-1e-8-34.473676l-34.47367601-34.481665a24.383235 24.383235 0 0 0-34.47367599 0l-268.151671 268.15966L551.243267 24.383235a24.375246 24.375246 0 0 0-24.383235-24.383235l-48.758481 0a24.375246 24.375246 0 0 0-24.375246 24.383235L453.726305 871.756577l-268.726898-268.726898a24.383235 24.383235 0 0 0-34.47367599 0l-34.47367601 34.481665a24.367256 24.367256 0 0 0-0.007989 34.473676z" p-id="166160"></path></svg>