<?xml version="1.0" encoding="utf-8"?>
<!-- Generator: Adobe Illustrator 16.0.0, SVG Export Plug-In . SVG Version: 6.00 Build 0)  -->
<!DOCTYPE svg PUBLIC "-//W3C//DTD SVG 1.0//EN" "http://www.w3.org/TR/2001/REC-SVG-20010904/DTD/svg10.dtd">
<svg version="1.0" id="Layer_1" xmlns="http://www.w3.org/2000/svg" xmlns:xlink="http://www.w3.org/1999/xlink" x="0px" y="0px"
	 width="100px" height="100px" viewBox="0 0 100 100" enable-background="new 0 0 100 100" xml:space="preserve">
<path d="M29.997,70.57V30c0-3.682,2.985-6.667,6.667-6.667S43.33,26.319,43.33,30v19.661l18.103,5.172
	c3.525,1.01,5.82,4.775,5.101,8.369L61.175,90H30.57L11.953,71.381c-2.604-2.605-2.604-6.826,0-9.428
	c2.602-2.604,6.823-2.604,9.428,0L29.997,70.57z"/>
<path d="M90,20H53.965c-3.46-5.971-9.902-10-17.305-10c-11.038,0-19.993,8.965-19.993,20c0,2.884,0.625,5.618,1.722,8.096
	l6.182-2.563c-0.774-1.689-1.236-3.555-1.236-5.533c0-7.357,5.97-13.334,13.326-13.334C44.03,16.667,50,22.643,50,30
	c0,1.807-0.368,3.528-1.022,5.101l6.166,2.552c0.977-2.359,1.523-4.941,1.523-7.652c0-1.14-0.117-2.246-0.3-3.334H90V20z"/>
</svg>
