<svg t="1705828127960" class="icon" viewBox="0 0 1024 1024" version="1.1" xmlns="http://www.w3.org/2000/svg" p-id="96244" width="200" height="200"><path d="M984.615385 452.529231H571.076923V39.384615a39.384615 39.384615 0 0 0-39.384615-39.384615h-39.384616a39.384615 39.384615 0 0 0-39.384615 39.384615v413.144616H39.384615a39.384615 39.384615 0 0 0-39.384615 39.384615v39.384616a39.384615 39.384615 0 0 0 39.384615 39.384615h413.538462V984.615385a39.384615 39.384615 0 0 0 39.384615 39.384615h39.384616a39.384615 39.384615 0 0 0 39.384615-39.384615V570.683077H984.615385a39.384615 39.384615 0 0 0 39.384615-39.384615v-39.384616a39.384615 39.384615 0 0 0-39.384615-39.384615z" p-id="96245" fill="#1296db"></path></svg>