<svg t="1706605717770" class="icon" viewBox="0 0 1024 1024" version="1.1" xmlns="http://www.w3.org/2000/svg" p-id="8826" width="200" height="200"><path d="M469.1968 669.3888a51.2 51.2 0 0 0 24.4736 19.0464c3.4816 1.1264 7.168 1.9456 10.8544 2.1504 1.9456 0.512 3.7888 0.9216 5.7344 1.1264h1.2288c3.8912-0.3072 7.68-1.024 11.3664-2.2528 11.6736-2.9696 21.9136-10.0352 28.7744-19.968l327.3728-345.1904a53.8112 53.8112 0 0 0-3.4816-75.6736l-0.3072-0.3072a46.91968 46.91968 0 0 0-66.1504 3.6864L561.8688 510.7712V51.6096c0-28.4672-23.04-51.5072-51.5072-51.5072-28.4672 0-51.5072 23.04-51.5072 51.5072v459.264l-248.5248-260.096c-1.024-1.1264-2.048-2.2528-3.1744-3.2768l-0.2048-0.2048a46.9504 46.9504 0 0 0-66.2528 3.584c-18.432 20.48-18.432 51.6096 0 72.0896l328.4992 346.4192z" p-id="8827" fill="#1296db"></path><path d="M972.4928 661.1968c-28.2624 0-51.2 22.9376-51.2 51.2v168.0384c0 22.6304-18.3296 40.96-40.96 40.96H143.6672c-22.6304 0-40.96-18.3296-40.96-40.96V712.3968c0-28.2624-22.9376-51.2-51.2-51.2s-51.2 22.9376-51.2 51.2v168.0384c0 79.1552 64.2048 143.36 143.36 143.36h736.6656c79.1552 0 143.36-64.2048 143.36-143.36V712.3968c0-28.2624-22.9376-51.2-51.2-51.2z" p-id="8828" fill="#1296db"></path></svg>