<svg t="1705825853733" class="icon" viewBox="0 0 1024 1024" version="1.1" xmlns="http://www.w3.org/2000/svg" p-id="33592" width="200" height="200"><path d="M0 0h1024v1024H0V0z" fill="#202425" opacity=".01" p-id="33593"></path><path d="M68.266667 102.4a34.133333 34.133333 0 0 1 34.133333-34.133333h341.333333a34.133333 34.133333 0 0 1 34.133334 34.133333v341.333333a34.133333 34.133333 0 0 1-34.133334 34.133334H102.4a34.133333 34.133333 0 0 1-34.133333-34.133334V102.4z m0 477.866667a34.133333 34.133333 0 0 1 34.133333-34.133334h341.333333a34.133333 34.133333 0 0 1 34.133334 34.133334v341.333333a34.133333 34.133333 0 0 1-34.133334 34.133333H102.4a34.133333 34.133333 0 0 1-34.133333-34.133333V580.266667zM580.266667 68.266667a34.133333 34.133333 0 0 0-34.133334 34.133333v341.333333a34.133333 34.133333 0 0 0 34.133334 34.133334h341.333333a34.133333 34.133333 0 0 0 34.133333-34.133334V102.4a34.133333 34.133333 0 0 0-34.133333-34.133333H580.266667z" fill="#11AA66" p-id="33594"></path><path d="M170.666667 204.8a34.133333 34.133333 0 0 1 34.133333-34.133333h136.533333a34.133333 34.133333 0 0 1 34.133334 34.133333v136.533333a34.133333 34.133333 0 0 1-34.133334 34.133334H204.8a34.133333 34.133333 0 0 1-34.133333-34.133334V204.8z m477.866666 0a34.133333 34.133333 0 0 1 34.133334-34.133333h136.533333a34.133333 34.133333 0 0 1 34.133333 34.133333v136.533333a34.133333 34.133333 0 0 1-34.133333 34.133334h-136.533333a34.133333 34.133333 0 0 1-34.133334-34.133334V204.8zM204.8 648.533333a34.133333 34.133333 0 0 0-34.133333 34.133334v136.533333a34.133333 34.133333 0 0 0 34.133333 34.133333h136.533333a34.133333 34.133333 0 0 0 34.133334-34.133333v-136.533333a34.133333 34.133333 0 0 0-34.133334-34.133334H204.8z" fill="#FFFFFF" p-id="33595"></path><path d="M614.4 546.133333a34.133333 34.133333 0 0 1 34.133333 34.133334v341.333333a34.133333 34.133333 0 1 1-68.266666 0V580.266667a34.133333 34.133333 0 0 1 34.133333-34.133334z m136.533333 0a34.133333 34.133333 0 0 1 34.133334 34.133334v341.333333a34.133333 34.133333 0 1 1-68.266667 0V580.266667a34.133333 34.133333 0 0 1 34.133333-34.133334z m136.533334 0a34.133333 34.133333 0 0 1 34.133333 34.133334v341.333333a34.133333 34.133333 0 1 1-68.266667 0V580.266667a34.133333 34.133333 0 0 1 34.133334-34.133334z" fill="#FFAA44" p-id="33596"></path></svg>