<svg t="1710665210296" class="icon" viewBox="0 0 1024 1024" version="1.1" xmlns="http://www.w3.org/2000/svg" p-id="17822" width="14" height="14"><path d="M938.752 711.168L978.176 640l-48.384-48.384-70.912 39.424a169.472 169.472 0 0 0-17.408-7.168l-22.272-76.8h-68.352l-22.272 76.8a168.96 168.96 0 0 0-17.408 7.168L640 591.872 591.872 640l39.424 70.912a168.448 168.448 0 0 0-7.424 17.408l-76.8 22.272V819.2l76.8 22.272a170.752 170.752 0 0 0 7.424 17.408l-39.424 70.912L640 978.176l70.912-39.424a168.96 168.96 0 0 0 17.408 7.168l22.272 76.8H819.2l22.272-76.8a169.728 169.728 0 0 0 17.408-7.168l70.912 39.424 48.384-48.384-39.424-70.912a169.216 169.216 0 0 0 7.424-17.408L1024 819.2v-68.352l-76.8-22.272a169.984 169.984 0 0 0-7.424-17.408z m-153.6 153.6a79.616 79.616 0 1 1 79.616-79.616 79.616 79.616 0 0 1-79.616 79.616z m-409.6-318.464H102.4a102.4 102.4 0 0 0-102.4 102.4V921.6a102.4 102.4 0 0 0 102.4 102.4h273.152a102.4 102.4 0 0 0 102.4-102.4V648.448a102.4 102.4 0 0 0-102.4-102.4zM921.6 0H648.448a102.4 102.4 0 0 0-102.4 102.4v273.152a102.4 102.4 0 0 0 102.4 102.4H921.6a102.4 102.4 0 0 0 102.4-102.4V102.4a102.4 102.4 0 0 0-102.4-102.4zM375.552 0H102.4a102.4 102.4 0 0 0-102.4 102.4v273.152a102.4 102.4 0 0 0 102.4 102.4h273.152a102.4 102.4 0 0 0 102.4-102.4V102.4a102.4 102.4 0 0 0-102.4-102.4z m0 0" fill="#A250F9" p-id="17823"></path></svg>