<svg t="1710665438703" class="icon" viewBox="0 0 1080 1024" version="1.1" xmlns="http://www.w3.org/2000/svg" p-id="26422" width="200" height="200"><path d="M165.148444 188.529778C165.148444 115.484444 341.731556 56.263111 544.426667 56.263111c202.695111 0 379.221333 59.164444 379.221333 132.266667 0 73.045333-176.526222 132.266667-379.221333 132.266666S165.148444 261.575111 165.148444 188.529778zM544.426667 535.836444c202.695111 0 379.221333-59.221333 379.221333-132.209777V311.068444c-91.704889 65.934222-265.671111 85.560889-379.221333 85.560889-114.005333 0-287.800889-19.854222-379.278223-85.560889v92.558223c0 73.045333 176.583111 132.209778 379.278223 132.209777z m0 214.869334c12.856889 0 25.713778-0.284444 38.343111-0.739556 1.592889-51.484444 19.342222-101.262222 50.858666-141.994666-31.800889 2.503111-62.293333 3.754667-89.201777 3.754666-114.005333 0-287.800889-19.797333-379.278223-85.560889v92.330667c0 72.988444 176.583111 132.209778 379.278223 132.209778z m47.559111 74.695111c-16.611556 0.796444-32.654222 1.137778-47.559111 1.137778-113.607111 0-287.573333-19.626667-379.278223-85.560889v93.240889c0 72.988444 176.583111 132.266667 379.278223 132.266666 48.696889 0 95.800889-3.527111 139.377777-9.728a246.784 246.784 0 0 1-91.818666-131.356444z m252.302222-78.051556V675.271111c0-9.557333-4.778667-14.392889-14.392889-14.392889-9.614222 0-14.392889 4.835556-14.392889 14.392889v72.021333H743.537778c-9.614222 0-14.392889 4.778667-14.392889 14.392889 0 9.557333 4.778667 14.392889 14.392889 14.392889h71.964444v71.964445c0 9.557333 4.778667 14.392889 14.392889 14.392889 9.614222 0 14.392889-4.835556 14.392889-14.392889v-71.964445h71.964444c9.614222 0 14.392889-4.835556 14.392889-14.392889 0-9.614222-4.778667-14.392889-14.392889-14.392889h-71.964444z m155.249778 10.524445a170.723556 170.723556 0 0 1-341.333334 0 170.723556 170.723556 0 0 1 341.333334 0z" fill="#d4237a" p-id="26423"></path></svg>