<?xml version="1.0" encoding="UTF-8" standalone="no"?>
<svg xmlns="http://www.w3.org/2000/svg" class="icon" height="200" p-id="4290" t="1712045531128" version="1.1" viewBox="0 0 1024 1024" width="200">
    <path d="M128 42.666667h768c46.933333 0 85.333333 38.4 85.333333 85.333333v768c0 46.933333-38.4 85.333333-85.333333 85.333333H128c-46.933333 0-85.333333-38.4-85.333333-85.333333V128c0-46.933333 38.4-85.333333 85.333333-85.333333z m0 64c-12.8 0-21.333333 8.533333-21.333333 21.333333v768c0 12.8 8.533333 21.333333 21.333333 21.333333h768c12.8 0 21.333333-8.533333 21.333333-21.333333V128c0-12.8-8.533333-21.333333-21.333333-21.333333H128z m328.533333 520.533333v64c0 34.133333-12.8 59.733333-34.133333 85.333333-25.6 21.333333-51.2 34.133333-85.333333 34.133334s-59.733333-12.8-85.333334-34.133334-38.4-55.466667-38.4-85.333333c0-34.133333 12.8-59.733333 34.133334-85.333333s51.2-34.133333 85.333333-34.133334h64v-115.2H332.8c-34.133333 0-59.733333-12.8-85.333333-34.133333S213.333333 366.933333 213.333333 332.8s12.8-59.733333 34.133334-85.333333S298.666667 213.333333 332.8 213.333333s59.733333 12.8 85.333333 34.133334c25.6 21.333333 34.133333 51.2 34.133334 85.333333v64h115.2V332.8c0-34.133333 12.8-59.733333 34.133333-85.333333 25.6-21.333333 51.2-34.133333 85.333333-34.133334s64 12.8 85.333334 34.133334c25.6 25.6 38.4 51.2 38.4 85.333333s-12.8 59.733333-34.133334 85.333333c-21.333333 25.6-51.2 34.133333-85.333333 34.133334h-64v115.2h64c34.133333 0 59.733333 12.8 85.333333 34.133333 21.333333 25.6 34.133333 51.2 34.133334 85.333333s-12.8 64-34.133334 85.333334c-21.333333 25.6-51.2 34.133333-85.333333 34.133333s-59.733333-12.8-85.333333-34.133333c-25.6-21.333333-34.133333-51.2-34.133334-85.333334v-64h-115.2z m0-59.733333h115.2v-115.2h-115.2v115.2z m-59.733333-170.666667V332.8c0-17.066667-4.266667-34.133333-17.066667-46.933333-12.8-8.533333-29.866667-17.066667-46.933333-17.066667-17.066667 0-34.133333 4.266667-46.933333 17.066667-8.533333 17.066667-17.066667 29.866667-17.066667 46.933333s4.266667 34.133333 17.066667 46.933333c12.8 12.8 25.6 17.066667 46.933333 17.066667h64z m0 230.4H332.8c-17.066667 0-34.133333 4.266667-46.933333 17.066667-12.8 12.8-17.066667 25.6-17.066667 46.933333 0 17.066667 4.266667 34.133333 17.066667 46.933333 12.8 12.8 25.6 17.066667 46.933333 17.066667 17.066667 0 34.133333-4.266667 46.933333-17.066667 12.8-12.8 17.066667-25.6 17.066667-46.933333v-64z m230.4-230.4h64c17.066667 0 34.133333-4.266667 46.933333-17.066667 12.8-12.8 17.066667-25.6 17.066667-46.933333s-4.266667-34.133333-17.066667-46.933333c-12.8-12.8-25.6-17.066667-46.933333-17.066667-17.066667 0-34.133333 4.266667-46.933333 17.066667-12.8 12.8-17.066667 25.6-17.066667 46.933333v64z m0 230.4v64c0 17.066667 4.266667 34.133333 17.066667 46.933333 12.8 12.8 25.6 17.066667 46.933333 17.066667 17.066667 0 34.133333-4.266667 46.933333-17.066667 12.8-12.8 17.066667-25.6 17.066667-46.933333 0-17.066667-4.266667-34.133333-17.066667-46.933333-12.8-12.8-25.6-17.066667-46.933333-17.066667h-64z" fill="#d4237a" p-id="4291"/>
</svg>
