<svg t="1705833995305" class="icon" viewBox="0 0 1024 1024" version="1.1" xmlns="http://www.w3.org/2000/svg" p-id="4973" width="200" height="200"><path d="M511.193 959.185c-247.418 0-447.987-200.572-447.987-447.988 0-247.42 200.569-447.992 447.987-447.992s447.992 200.572 447.992 447.992c0 247.416-200.574 447.988-447.992 447.988z m0.002-839.979c-216.491 0-391.991 175.5-391.991 391.99s175.5 391.991 391.99 391.991 391.991-175.5 391.991-391.99-175.499-391.991-391.99-391.991z m335.992 391.99c0 15.463-12.537 27.997-28 28h-229.14c-11.569 32.552-42.333 55.997-78.852 55.997-46.392 0-83.998-37.607-83.998-83.996 0-36.52 23.448-67.286 55.998-78.857V203.204c0-15.464 12.534-28 28-28 15.462 0 27.996 12.535 27.996 28h0.002V432.34a83.695 83.695 0 0 1 50.854 50.856h229.14c15.463-0.001 28 12.537 28 28z m-335.992-28.001c-15.465 0-28 12.536-28 28.002 0 15.462 12.534 28 28 28 15.462 0 28-12.537 28-28 0-15.464-12.538-28.002-28-28.002z m197.16-167.991c-10.935-10.933-10.935-28.665 0-39.598 10.933-10.935 28.663-10.935 39.596 0 10.935 10.933 10.935 28.665 0 39.598-10.933 10.933-28.663 10.933-39.596 0zM273.5 313.479c-10.935-10.933-10.935-28.663 0-39.596s28.663-10.933 39.598 0c10.933 10.933 10.933 28.663 0 39.596-10.935 10.936-28.662 10.936-39.598 0z m39.381 394.91c10.935 10.935 10.935 28.663 0 39.598-10.935 10.935-28.663 10.935-39.598 0-10.933-10.935-10.933-28.663 0-39.598 10.935-10.934 28.663-10.934 39.598 0z m198.314 82.802c15.462 0 28 12.534 28 28 0 15.462-12.537 27.996-28 27.996-15.465 0-28-12.534-28-27.997 0.001-15.465 12.535-28 28-28z m237.412-81.94c10.935 10.935 10.935 28.662 0 39.595-10.933 10.938-28.66 10.938-39.596 0-10.935-10.933-10.935-28.66 0-39.596 10.936-10.933 28.663-10.933 39.596 0zM203.202 539.195c-15.464 0-28-12.536-28-28 0-15.463 12.535-28.001 28-28.001 15.462 0 28 12.536 28 28.002 0 15.462-12.538 28-28 28z" fill="" p-id="4974"></path></svg>